<svg viewBox="0 0 140.336 47.8633" xmlns="http://www.w3.org/2000/svg" width="140.335938" height="47.863281" fill="none">
	<defs>
		<linearGradient id="paint_linear_0" x1="2.50976562" x2="135.309784" y1="25.3515549" y2="25.3515549" gradientUnits="userSpaceOnUse">
			<stop stop-color="rgb(68.1098,109.291,224.826)" offset="0" stop-opacity="1" />
			<stop stop-color="rgb(3.84244,51.2603,137.798)" offset="1" stop-opacity="1" />
		</linearGradient>
	</defs>
	<g id="Сочетание 1">
		<path id="Vector 170" d="M2.50977 45.3515C3.03776 44.8236 12.8137 38.4796 33.2857 28.2236C54.7027 17.4942 69.9658 20.8076 71.5658 23.5956C73.6284 27.1896 71.8458 31.7356 71.1818 34.6636C70.6127 37.173 68.9178 38.9436 67.1898 40.1436C66.3511 40.726 65.1978 40.5516 64.2578 39.8916C63.3177 39.2316 62.5257 37.9116 62.1177 36.3076C61.7097 34.7036 61.7097 32.8556 62.2378 31.3756C64.7374 24.369 80.8298 21.3676 102.038 20.4196C110.04 20.0619 117.934 16.0396 125.018 13.2276C128.606 11.7676 131.566 10.1596 133.43 8.43156C134.238 7.49556 134.766 6.43956 135.31 5.35156" stroke="url(#paint_linear_0)" stroke-linecap="round" stroke-width="5.000000" />
		<path id="Vector 171" d="M0 6.27506C2.92004 6.01106 7.71204 4.94706 11.188 1.62306C12.082 0.768177 12.784 -0.108936 13.456 0.0110644C14.128 0.131065 14.656 1.18706 14.928 3.44706C15.2 5.70706 15.2 9.13906 15.2 12.6751" stroke="rgb(16.0787,57.0944,131.668)" stroke-linecap="round" stroke-width="4.000000" transform="matrix(0.935374,0.353661,-0.353661,0.935374,125.242,0)" />
	</g>
</svg>
